{
	"asset":{
		"generator":"Khronos glTF Blender I/O v3.5.30",
		"version":"2.0"
	},
	"scene":0,
	"scenes":[
		{
			"name":"Scene",
			"nodes":[
				0,
				1,
				2,
				3,
				4,
				5,
				6,
				7,
				8,
				9
			]
		}
	],
	"nodes":[
		{
			"mesh":0,
			"name":"\u67f1\u4f53",
			"translation":[
				0,
				1.5975797176361084,
				0
			]
		},
		{
			"mesh":1,
			"name":"\u7acb\u65b9\u4f53",
			"scale":[
				0.5371577143669128,
				0.5371577143669128,
				0.11584333330392838
			],
			"translation":[
				1.167108178138733,
				1.6469498872756958,
				0
			]
		},
		{
			"mesh":2,
			"name":"\u67f1\u4f53.001",
			"scale":[
				1.8480722904205322,
				1.8480722904205322,
				1.8480722904205322
			],
			"translation":[
				0,
				1.5975797176361084,
				0
			]
		},
		{
			"mesh":3,
			"name":"\u67f1\u4f53.002",
			"scale":[
				0.8688831925392151,
				0.8688831925392151,
				0.8688831925392151
			],
			"translation":[
				0,
				1.5975797176361084,
				0
			]
		},
		{
			"mesh":4,
			"name":"\u7403\u4f53",
			"scale":[
				0.28531259298324585,
				0.28531259298324585,
				0.28531259298324585
			],
			"translation":[
				-0.44090375304222107,
				2.947032928466797,
				0.26189857721328735
			]
		},
		{
			"mesh":5,
			"name":"\u7403\u4f53.001",
			"scale":[
				0.1851828247308731,
				0.1851828247308731,
				0.1851828247308731
			],
			"translation":[
				0.541885495185852,
				2.952361822128296,
				-0.05554213374853134
			]
		},
		{
			"mesh":6,
			"name":"\u7403\u4f53.002",
			"scale":[
				0.1410915106534958,
				0.1410915106534958,
				0.1410915106534958
			],
			"translation":[
				-0.14362430572509766,
				3.5119566917419434,
				-0.3666705787181854
			]
		},
		{
			"mesh":7,
			"name":"\u5e73\u9762",
			"scale":[
				33.3311882019043,
				33.3311882019043,
				33.3311882019043
			],
			"translation":[
				0.199611634016037,
				0.280143141746521,
				0
			]
		},
		{
			"mesh":8,
			"name":"\u7acb\u65b9\u4f53.001",
			"scale":[
				1.4884661436080933,
				1.4884661436080933,
				1.4884661436080933
			],
			"translation":[
				-4.099999904632568,
				-0.699999988079071,
				0
			]
		},
		{
			"mesh":9,
			"name":"\u7acb\u65b9\u4f53.002",
			"rotation":[
				0,
				-0.1807929277420044,
				0,
				0.9835212230682373
			],
			"scale":[
				1.4884661436080933,
				1.4884661436080933,
				1.4884661436080933
			],
			"translation":[
				-4.099999904632568,
				-0.3999999761581421,
				-0.20000000298023224
			]
		}
	],
	"materials":[
		{
			"doubleSided":true,
			"name":"\u6750\u8d28",
			"pbrMetallicRoughness":{
				"baseColorFactor":[
					0.800000011920929,
					0.800000011920929,
					0.800000011920929,
					1
				],
				"metallicFactor":0,
				"roughnessFactor":0.5
			}
		},
		{
			"doubleSided":true,
			"name":"\u6750\u8d28.002",
			"pbrMetallicRoughness":{
				"baseColorFactor":[
					0.800000011920929,
					0.800000011920929,
					0.800000011920929,
					1
				],
				"metallicFactor":0,
				"roughnessFactor":0.5
			}
		},
		{
			"doubleSided":true,
			"name":"\u6750\u8d28.001",
			"pbrMetallicRoughness":{
				"baseColorFactor":[
					0.800000011920929,
					0.800000011920929,
					0.800000011920929,
					1
				],
				"metallicFactor":0,
				"roughnessFactor":0.5
			}
		},
		{
			"doubleSided":true,
			"name":"\u6750\u8d28.003",
			"pbrMetallicRoughness":{
				"baseColorFactor":[
					0.31512728333473206,
					0.1267550140619278,
					0.05553629994392395,
					1
				],
				"metallicFactor":0,
				"roughnessFactor":0.5
			}
		},
		{
			"doubleSided":true,
			"name":"\u6750\u8d28.004",
			"pbrMetallicRoughness":{
				"baseColorFactor":[
					0.800000011920929,
					0.800000011920929,
					0.800000011920929,
					1
				],
				"metallicFactor":0,
				"roughnessFactor":0.5
			}
		},
		{
			"doubleSided":true,
			"name":"\u6750\u8d28.006",
			"pbrMetallicRoughness":{
				"baseColorFactor":[
					0.800000011920929,
					0.800000011920929,
					0.800000011920929,
					1
				],
				"metallicFactor":0,
				"roughnessFactor":0.5
			}
		},
		{
			"doubleSided":true,
			"name":"\u6750\u8d28.005",
			"pbrMetallicRoughness":{
				"baseColorFactor":[
					0.800000011920929,
					0.800000011920929,
					0.800000011920929,
					1
				],
				"metallicFactor":0,
				"roughnessFactor":0.5
			}
		},
		{
			"doubleSided":true,
			"name":"\u6750\u8d28.011",
			"pbrMetallicRoughness":{
				"baseColorFactor":[
					0.11986436694860458,
					0.46452224254608154,
					0.8000000715255737,
					1
				],
				"metallicFactor":0,
				"roughnessFactor":0.5
			}
		},
		{
			"doubleSided":true,
			"name":"\u6750\u8d28.013",
			"pbrMetallicRoughness":{
				"baseColorFactor":[
					0.037445470690727234,
					0.13460487127304077,
					0.2399747222661972,
					1
				],
				"metallicFactor":0,
				"roughnessFactor":0.5
			}
		},
		{
			"doubleSided":true,
			"name":"\u6750\u8d28.015",
			"pbrMetallicRoughness":{
				"baseColorFactor":[
					0.800000011920929,
					0.800000011920929,
					0.800000011920929,
					1
				],
				"metallicFactor":0,
				"roughnessFactor":0.5
			}
		},
		{
			"doubleSided":true,
			"name":"\u6750\u8d28.012",
			"pbrMetallicRoughness":{
				"baseColorFactor":[
					0.8000000715255737,
					0.4439855217933655,
					0.11983620375394821,
					1
				],
				"metallicFactor":0,
				"roughnessFactor":0.5
			}
		},
		{
			"doubleSided":true,
			"name":"\u6750\u8d28.014",
			"pbrMetallicRoughness":{
				"baseColorFactor":[
					0.800000011920929,
					0.800000011920929,
					0.800000011920929,
					1
				],
				"metallicFactor":0,
				"roughnessFactor":0.5
			}
		}
	],
	"meshes":[
		{
			"name":"\u67f1\u4f53",
			"primitives":[
				{
					"attributes":{
						"POSITION":0,
						"TEXCOORD_0":1,
						"NORMAL":2
					},
					"indices":3,
					"material":0
				}
			]
		},
		{
			"name":"\u7acb\u65b9\u4f53",
			"primitives":[
				{
					"attributes":{
						"POSITION":4,
						"TEXCOORD_0":5,
						"NORMAL":6
					},
					"indices":7,
					"material":1
				}
			]
		},
		{
			"name":"\u67f1\u4f53.001",
			"primitives":[
				{
					"attributes":{
						"POSITION":8,
						"TEXCOORD_0":9,
						"NORMAL":10
					},
					"indices":11,
					"material":2
				}
			]
		},
		{
			"name":"\u67f1\u4f53.002",
			"primitives":[
				{
					"attributes":{
						"POSITION":12,
						"TEXCOORD_0":13,
						"NORMAL":14
					},
					"indices":15,
					"material":3
				}
			]
		},
		{
			"name":"\u7403\u4f53",
			"primitives":[
				{
					"attributes":{
						"POSITION":16,
						"TEXCOORD_0":17,
						"NORMAL":18
					},
					"indices":19,
					"material":4
				}
			]
		},
		{
			"name":"\u7403\u4f53.001",
			"primitives":[
				{
					"attributes":{
						"POSITION":20,
						"TEXCOORD_0":21,
						"NORMAL":22
					},
					"indices":19,
					"material":5
				}
			]
		},
		{
			"name":"\u7403\u4f53.002",
			"primitives":[
				{
					"attributes":{
						"POSITION":23,
						"TEXCOORD_0":24,
						"NORMAL":25
					},
					"indices":19,
					"material":6
				}
			]
		},
		{
			"name":"\u5e73\u9762",
			"primitives":[
				{
					"attributes":{
						"POSITION":26,
						"TEXCOORD_0":27,
						"NORMAL":28
					},
					"indices":29,
					"material":7
				}
			]
		},
		{
			"name":"\u7acb\u65b9\u4f53.003",
			"primitives":[
				{
					"attributes":{
						"POSITION":30,
						"TEXCOORD_0":31,
						"NORMAL":32
					},
					"indices":33,
					"material":8
				},
				{
					"attributes":{
						"POSITION":34,
						"TEXCOORD_0":35,
						"NORMAL":36
					},
					"indices":37,
					"material":9
				}
			]
		},
		{
			"name":"\u7acb\u65b9\u4f53.005",
			"primitives":[
				{
					"attributes":{
						"POSITION":38,
						"TEXCOORD_0":39,
						"NORMAL":40
					},
					"indices":33,
					"material":10
				},
				{
					"attributes":{
						"POSITION":41,
						"TEXCOORD_0":42,
						"NORMAL":43
					},
					"indices":37,
					"material":11
				}
			]
		}
	],
	"accessors":[
		{
			"bufferView":0,
			"componentType":5126,
			"count":455,
			"max":[
				1,
				1,
				1
			],
			"min":[
				-1,
				-1,
				-1
			],
			"type":"VEC3"
		},
		{
			"bufferView":1,
			"componentType":5126,
			"count":455,
			"type":"VEC2"
		},
		{
			"bufferView":2,
			"componentType":5126,
			"count":455,
			"type":"VEC3"
		},
		{
			"bufferView":3,
			"componentType":5123,
			"count":2292,
			"type":"SCALAR"
		},
		{
			"bufferView":4,
			"componentType":5126,
			"count":64,
			"max":[
				1,
				1,
				1.0000001192092896
			],
			"min":[
				-0.4459507465362549,
				-1,
				-1
			],
			"type":"VEC3"
		},
		{
			"bufferView":5,
			"componentType":5126,
			"count":64,
			"type":"VEC2"
		},
		{
			"bufferView":6,
			"componentType":5126,
			"count":64,
			"type":"VEC3"
		},
		{
			"bufferView":7,
			"componentType":5123,
			"count":228,
			"type":"SCALAR"
		},
		{
			"bufferView":8,
			"componentType":5126,
			"count":384,
			"max":[
				1.040071725845337,
				-0.5360810160636902,
				1
			],
			"min":[
				-0.9599283337593079,
				-0.6215452551841736,
				-0.9999999403953552
			],
			"type":"VEC3"
		},
		{
			"bufferView":9,
			"componentType":5126,
			"count":384,
			"type":"VEC2"
		},
		{
			"bufferView":10,
			"componentType":5126,
			"count":384,
			"type":"VEC3"
		},
		{
			"bufferView":11,
			"componentType":5123,
			"count":756,
			"type":"SCALAR"
		},
		{
			"bufferView":12,
			"componentType":5126,
			"count":192,
			"max":[
				1,
				1,
				1
			],
			"min":[
				-1,
				-0.789554238319397,
				-1
			],
			"type":"VEC3"
		},
		{
			"bufferView":13,
			"componentType":5126,
			"count":192,
			"type":"VEC2"
		},
		{
			"bufferView":14,
			"componentType":5126,
			"count":192,
			"type":"VEC3"
		},
		{
			"bufferView":15,
			"componentType":5123,
			"count":372,
			"type":"SCALAR"
		},
		{
			"bufferView":16,
			"componentType":5126,
			"count":559,
			"max":[
				0.9999997019767761,
				1,
				0.9999993443489075
			],
			"min":[
				-0.9999990463256836,
				-1,
				-1
			],
			"type":"VEC3"
		},
		{
			"bufferView":17,
			"componentType":5126,
			"count":559,
			"type":"VEC2"
		},
		{
			"bufferView":18,
			"componentType":5126,
			"count":559,
			"type":"VEC3"
		},
		{
			"bufferView":19,
			"componentType":5123,
			"count":2880,
			"type":"SCALAR"
		},
		{
			"bufferView":20,
			"componentType":5126,
			"count":559,
			"max":[
				0.9999997019767761,
				1,
				0.9999993443489075
			],
			"min":[
				-0.9999990463256836,
				-1,
				-1
			],
			"type":"VEC3"
		},
		{
			"bufferView":21,
			"componentType":5126,
			"count":559,
			"type":"VEC2"
		},
		{
			"bufferView":22,
			"componentType":5126,
			"count":559,
			"type":"VEC3"
		},
		{
			"bufferView":23,
			"componentType":5126,
			"count":559,
			"max":[
				0.9999997019767761,
				1,
				0.9999993443489075
			],
			"min":[
				-0.9999990463256836,
				-1,
				-1
			],
			"type":"VEC3"
		},
		{
			"bufferView":24,
			"componentType":5126,
			"count":559,
			"type":"VEC2"
		},
		{
			"bufferView":25,
			"componentType":5126,
			"count":559,
			"type":"VEC3"
		},
		{
			"bufferView":26,
			"componentType":5126,
			"count":4,
			"max":[
				1,
				0,
				1
			],
			"min":[
				-1,
				0,
				-1
			],
			"type":"VEC3"
		},
		{
			"bufferView":27,
			"componentType":5126,
			"count":4,
			"type":"VEC2"
		},
		{
			"bufferView":28,
			"componentType":5126,
			"count":4,
			"type":"VEC3"
		},
		{
			"bufferView":29,
			"componentType":5123,
			"count":6,
			"type":"SCALAR"
		},
		{
			"bufferView":30,
			"componentType":5126,
			"count":60,
			"max":[
				1.268733024597168,
				1,
				1
			],
			"min":[
				-0.3281674385070801,
				0.8139479160308838,
				-1
			],
			"type":"VEC3"
		},
		{
			"bufferView":31,
			"componentType":5126,
			"count":60,
			"type":"VEC2"
		},
		{
			"bufferView":32,
			"componentType":5126,
			"count":60,
			"type":"VEC3"
		},
		{
			"bufferView":33,
			"componentType":5123,
			"count":114,
			"type":"SCALAR"
		},
		{
			"bufferView":34,
			"componentType":5126,
			"count":12,
			"max":[
				1.2225090265274048,
				0.9498278498649597,
				0.9537760615348816
			],
			"min":[
				-0.2779952883720398,
				0.8641200661659241,
				-0.9537760615348816
			],
			"type":"VEC3"
		},
		{
			"bufferView":35,
			"componentType":5126,
			"count":12,
			"type":"VEC2"
		},
		{
			"bufferView":36,
			"componentType":5126,
			"count":12,
			"type":"VEC3"
		},
		{
			"bufferView":37,
			"componentType":5123,
			"count":18,
			"type":"SCALAR"
		},
		{
			"bufferView":38,
			"componentType":5126,
			"count":60,
			"max":[
				1.268733024597168,
				1,
				1
			],
			"min":[
				-0.3281674385070801,
				0.8139479160308838,
				-1
			],
			"type":"VEC3"
		},
		{
			"bufferView":39,
			"componentType":5126,
			"count":60,
			"type":"VEC2"
		},
		{
			"bufferView":40,
			"componentType":5126,
			"count":60,
			"type":"VEC3"
		},
		{
			"bufferView":41,
			"componentType":5126,
			"count":12,
			"max":[
				1.2225090265274048,
				0.9498278498649597,
				0.9537760615348816
			],
			"min":[
				-0.2779952883720398,
				0.8641200661659241,
				-0.9537760615348816
			],
			"type":"VEC3"
		},
		{
			"bufferView":42,
			"componentType":5126,
			"count":12,
			"type":"VEC2"
		},
		{
			"bufferView":43,
			"componentType":5126,
			"count":12,
			"type":"VEC3"
		}
	],
	"bufferViews":[
		{
			"buffer":0,
			"byteLength":5460,
			"byteOffset":0,
			"target":34962
		},
		{
			"buffer":0,
			"byteLength":3640,
			"byteOffset":5460,
			"target":34962
		},
		{
			"buffer":0,
			"byteLength":5460,
			"byteOffset":9100,
			"target":34962
		},
		{
			"buffer":0,
			"byteLength":4584,
			"byteOffset":14560,
			"target":34963
		},
		{
			"buffer":0,
			"byteLength":768,
			"byteOffset":19144,
			"target":34962
		},
		{
			"buffer":0,
			"byteLength":512,
			"byteOffset":19912,
			"target":34962
		},
		{
			"buffer":0,
			"byteLength":768,
			"byteOffset":20424,
			"target":34962
		},
		{
			"buffer":0,
			"byteLength":456,
			"byteOffset":21192,
			"target":34963
		},
		{
			"buffer":0,
			"byteLength":4608,
			"byteOffset":21648,
			"target":34962
		},
		{
			"buffer":0,
			"byteLength":3072,
			"byteOffset":26256,
			"target":34962
		},
		{
			"buffer":0,
			"byteLength":4608,
			"byteOffset":29328,
			"target":34962
		},
		{
			"buffer":0,
			"byteLength":1512,
			"byteOffset":33936,
			"target":34963
		},
		{
			"buffer":0,
			"byteLength":2304,
			"byteOffset":35448,
			"target":34962
		},
		{
			"buffer":0,
			"byteLength":1536,
			"byteOffset":37752,
			"target":34962
		},
		{
			"buffer":0,
			"byteLength":2304,
			"byteOffset":39288,
			"target":34962
		},
		{
			"buffer":0,
			"byteLength":744,
			"byteOffset":41592,
			"target":34963
		},
		{
			"buffer":0,
			"byteLength":6708,
			"byteOffset":42336,
			"target":34962
		},
		{
			"buffer":0,
			"byteLength":4472,
			"byteOffset":49044,
			"target":34962
		},
		{
			"buffer":0,
			"byteLength":6708,
			"byteOffset":53516,
			"target":34962
		},
		{
			"buffer":0,
			"byteLength":5760,
			"byteOffset":60224,
			"target":34963
		},
		{
			"buffer":0,
			"byteLength":6708,
			"byteOffset":65984,
			"target":34962
		},
		{
			"buffer":0,
			"byteLength":4472,
			"byteOffset":72692,
			"target":34962
		},
		{
			"buffer":0,
			"byteLength":6708,
			"byteOffset":77164,
			"target":34962
		},
		{
			"buffer":0,
			"byteLength":6708,
			"byteOffset":83872,
			"target":34962
		},
		{
			"buffer":0,
			"byteLength":4472,
			"byteOffset":90580,
			"target":34962
		},
		{
			"buffer":0,
			"byteLength":6708,
			"byteOffset":95052,
			"target":34962
		},
		{
			"buffer":0,
			"byteLength":48,
			"byteOffset":101760,
			"target":34962
		},
		{
			"buffer":0,
			"byteLength":32,
			"byteOffset":101808,
			"target":34962
		},
		{
			"buffer":0,
			"byteLength":48,
			"byteOffset":101840,
			"target":34962
		},
		{
			"buffer":0,
			"byteLength":12,
			"byteOffset":101888,
			"target":34963
		},
		{
			"buffer":0,
			"byteLength":720,
			"byteOffset":101900,
			"target":34962
		},
		{
			"buffer":0,
			"byteLength":480,
			"byteOffset":102620,
			"target":34962
		},
		{
			"buffer":0,
			"byteLength":720,
			"byteOffset":103100,
			"target":34962
		},
		{
			"buffer":0,
			"byteLength":228,
			"byteOffset":103820,
			"target":34963
		},
		{
			"buffer":0,
			"byteLength":144,
			"byteOffset":104048,
			"target":34962
		},
		{
			"buffer":0,
			"byteLength":96,
			"byteOffset":104192,
			"target":34962
		},
		{
			"buffer":0,
			"byteLength":144,
			"byteOffset":104288,
			"target":34962
		},
		{
			"buffer":0,
			"byteLength":36,
			"byteOffset":104432,
			"target":34963
		},
		{
			"buffer":0,
			"byteLength":720,
			"byteOffset":104468,
			"target":34962
		},
		{
			"buffer":0,
			"byteLength":480,
			"byteOffset":105188,
			"target":34962
		},
		{
			"buffer":0,
			"byteLength":720,
			"byteOffset":105668,
			"target":34962
		},
		{
			"buffer":0,
			"byteLength":144,
			"byteOffset":106388,
			"target":34962
		},
		{
			"buffer":0,
			"byteLength":96,
			"byteOffset":106532,
			"target":34962
		},
		{
			"buffer":0,
			"byteLength":144,
			"byteOffset":106628,
			"target":34962
		}
	],
	"buffers":[
		{
			"byteLength":106772,
			"uri":"coffee.bin"
		}
	]
}
